<svg width="91" height="90" viewBox="0 0 91 90" fill="none" xmlns="http://www.w3.org/2000/svg">
<g clip-path="url(#clip0_379_6918)">
<path d="M90.2256 36.9978C88.5406 42.4561 86.8616 47.9144 85.1707 53.3668C84.0138 57.1046 82.9043 60.866 81.0354 64.3427C79.6768 66.8761 77.9918 69.1366 75.7433 70.958C72.8539 73.2955 69.9883 75.6628 67.093 78.0004C66.6481 78.3623 66.4523 78.736 66.4642 79.3175C66.4938 81.9636 66.482 84.6037 66.476 87.2498C66.476 88.7686 66.0785 89.1721 64.5775 89.1721C59.9557 89.1721 55.3399 89.1721 50.7181 89.1721C49.1934 89.1721 48.8255 88.7983 48.8255 87.2557C48.8255 83.1324 48.7128 79.003 48.8552 74.8796C48.9976 70.9283 50.3147 67.2677 52.3022 63.8622C52.7294 63.1324 53.4473 62.9485 54.088 63.3045C54.7703 63.6842 54.9661 64.4377 54.4796 65.2683C53.032 67.7601 52.148 70.4418 51.614 73.254C51.5191 73.7642 51.436 74.2863 51.4301 74.8084C51.4123 78.4987 51.4182 82.189 51.4301 85.8793C51.4301 86.0751 51.4716 86.2768 51.4953 86.5082H63.8655C63.8655 85.3869 63.8655 84.3189 63.8655 83.251C63.8655 81.655 63.8952 80.0532 63.8537 78.4572C63.8299 77.6207 64.1384 77.0452 64.7792 76.5231C67.6329 74.227 70.4036 71.836 73.3048 69.6053C76.3247 67.2795 78.508 64.3368 79.7836 60.8186C81.5931 55.8349 83.1535 50.7622 84.7851 45.7133C85.675 42.9545 86.4997 40.1719 87.3481 37.4013C87.4252 37.1521 87.5201 36.9029 87.5617 36.6478C87.6744 35.918 87.3837 35.39 86.7014 35.123C86.0429 34.8679 85.3309 35.1764 85.0639 35.8824C84.7554 36.6952 84.5477 37.5437 84.2867 38.3743C83.2959 41.5306 82.4534 44.7344 81.2846 47.8195C79.2496 53.1829 75.7907 57.5436 71.258 61.05C69.5789 62.3493 67.894 63.6367 66.209 64.9182C65.414 65.5234 64.7911 65.5471 64.2571 65.0191C63.7172 64.4851 63.735 63.7791 64.358 62.99C67.3719 59.187 70.3918 55.3959 73.4116 51.5988C73.6667 51.2784 73.9397 50.9699 74.1414 50.6199C74.4499 50.074 74.3846 49.4333 73.8685 49.1544C73.465 48.9349 72.8658 49.018 72.3615 49.0714C72.1538 49.0951 71.964 49.3917 71.7801 49.5697C69.0984 52.1861 66.4226 54.8085 63.735 57.419C63.4502 57.6978 63.118 57.947 62.7798 58.1606C61.2372 59.1336 59.6947 60.1007 58.1284 61.0322C57.7487 61.2635 57.2562 61.5602 56.8825 61.4831C56.479 61.4059 55.9213 60.9669 55.862 60.6109C55.7849 60.1659 55.9925 59.4481 56.3366 59.1929C57.7249 58.1488 59.22 57.2588 60.6439 56.2621C61.0118 56.007 61.4034 55.6213 61.5398 55.2179C62.7857 51.5098 64.0732 47.8076 65.1648 44.0462C65.9005 41.5128 67.9593 39.8338 71.0206 41.2458C71.4122 39.9999 71.7682 38.7184 73.0378 38.0242C74.26 37.3479 75.4763 37.3894 76.7815 38.0954C76.9536 37.6089 77.1256 37.158 77.274 36.7071C78.1698 34.0076 80.2345 33.1118 82.5899 34.2153C83.5688 33.6101 84.3816 32.9041 85.325 32.5837C87.093 31.9726 89.0627 33.005 89.8637 34.7433C89.9942 35.0281 90.1069 35.3188 90.2315 35.6036V36.9978H90.2256ZM77.1138 50.5368C77.5469 49.6884 78.0512 48.9349 78.336 48.0984C79.4929 44.7344 80.5786 41.3407 81.694 37.959C81.9076 37.3123 81.9017 36.7368 81.1482 36.452C80.5252 36.2147 80.0624 36.5291 79.7836 37.4013C78.6979 40.7356 77.624 44.0699 76.5561 47.4101C76.473 47.6712 76.4493 47.9797 76.5027 48.2467C76.6629 48.9705 76.8824 49.6884 77.1138 50.5427V50.5368ZM65.4081 51.8361C65.5089 51.9251 65.6157 52.0141 65.7166 52.1031C66.4167 51.3318 67.1108 50.5605 67.8109 49.7952C68.1016 49.4748 68.5229 49.2019 68.6593 48.8222C69.1518 47.4339 69.5789 46.0159 69.9705 44.592C70.1307 44.0165 69.8341 43.5715 69.2408 43.3876C68.6297 43.1918 68.1669 43.4707 67.983 44.0106C67.099 46.6092 66.2624 49.2256 65.4081 51.8361ZM74.1829 46.2235C74.6991 44.6335 75.2212 43.0672 75.7136 41.4891C75.8916 40.9195 75.7195 40.4271 75.1203 40.2194C74.5567 40.0177 74.1176 40.2787 73.9397 40.8068C73.3523 42.5807 72.8124 44.3725 72.231 46.2235H74.1829Z" fill="#A11C22"/>
<path d="M27.3253 86.526H39.7192C39.737 86.17 39.7667 85.8378 39.7667 85.4996C39.7667 82.1297 39.9624 78.7479 39.7311 75.3958C39.209 67.8076 35.9696 61.8509 28.8916 58.3801C28.3339 58.1072 27.7881 57.7335 27.3372 57.3004C24.7207 54.7848 22.134 52.2336 19.5353 49.7003C19.4108 49.5757 19.2862 49.4511 19.1616 49.3384C18.5089 48.7391 17.8207 48.662 17.3046 49.1248C16.7528 49.6172 16.7291 50.2698 17.2927 50.9877C18.5801 52.6371 19.8854 54.2686 21.1906 55.9061C23.0358 58.2259 24.875 60.5457 26.7201 62.8655C26.8447 63.0256 26.9812 63.1799 27.082 63.352C27.4321 63.9452 27.4261 64.5267 26.9278 65.0191C26.4235 65.5175 25.848 65.5293 25.2666 65.1378C17.1088 59.6261 10.5291 52.9218 8.23903 42.8952C7.75253 40.7534 6.99311 38.6709 6.35829 36.5588C6.32269 36.4461 6.28709 36.3393 6.25149 36.2266C5.92518 35.2714 5.28442 34.862 4.50128 35.123C3.77152 35.3663 3.45115 36.0723 3.72406 36.98C4.36482 39.1159 5.01151 41.2577 5.68786 43.3817C7.39655 48.7688 9.07557 54.1678 10.8614 59.5311C11.7157 62.1001 13.0091 64.4792 14.7356 66.5913C14.8661 66.7515 14.9907 66.9117 15.0975 67.0838C15.5247 67.7542 15.4475 68.4424 14.9136 68.8814C14.35 69.3383 13.5431 69.2968 13.0625 68.6501C12.131 67.3923 11.1877 66.1286 10.4105 64.7759C8.72553 61.845 7.65167 58.6531 6.6668 55.4315C4.87505 49.5816 3.07737 43.7317 1.26189 37.8937C0.816922 36.4639 0.89405 35.1468 1.84332 33.9483C3.37995 32.0082 6.2159 31.9311 7.86525 33.7703C8.01951 33.9424 8.15597 34.1263 8.33989 34.3518C9.68073 33.6339 11.0275 33.5389 12.3624 34.3874C13.6914 35.2358 13.8694 36.7249 14.4152 38.0895C15.6789 37.4428 16.9189 37.336 18.1648 38.0361C19.4226 38.7421 19.8083 39.9999 20.1286 41.145C21.0008 40.9966 21.7958 40.7059 22.5671 40.7653C24.3351 40.8899 25.3496 42.0052 25.8777 43.6487C27.1236 47.5407 28.3932 51.4267 29.6866 55.3069C29.8053 55.6688 30.1316 56.0663 30.4638 56.2324C36.6341 59.365 40.271 64.4377 41.7423 71.0944C42.1517 72.9455 42.3 74.8797 42.3534 76.7782C42.4483 80.2608 42.3831 83.7494 42.3772 87.238C42.3772 88.828 42.0212 89.184 40.4252 89.184C35.8331 89.184 31.247 89.184 26.6549 89.184C25.1064 89.184 24.7267 88.7924 24.7207 87.2024C24.7207 84.6156 24.6911 82.0288 24.7385 79.448C24.7504 78.7598 24.5131 78.3326 23.991 77.9232C21.9441 76.2976 19.9328 74.6305 17.9097 72.9692C17.6427 72.7497 17.3639 72.5243 17.1503 72.2573C16.7587 71.7708 16.6994 71.1419 17.1622 70.7622C17.5241 70.4596 18.1174 70.3825 18.6217 70.335C18.8471 70.3172 19.1141 70.602 19.3396 70.7859C21.7305 72.726 24.1037 74.6839 26.5065 76.6121C27.1058 77.0926 27.3431 77.6563 27.3372 78.4157C27.3075 81.0855 27.3253 83.7494 27.3253 86.5319V86.526ZM13.9702 50.5843C15.2518 48.223 14.3025 46.188 13.5787 44.1292C13.549 44.0462 13.5312 43.9631 13.5075 43.8801C12.7955 41.6789 12.0895 39.4719 11.3657 37.2708C11.164 36.6597 10.7961 36.2206 10.0782 36.452C9.38409 36.6715 9.26543 37.2055 9.46715 37.8463C9.48494 37.8996 9.49088 37.959 9.50868 38.0183C10.2859 40.5635 10.9919 43.1384 11.8581 45.654C12.4395 47.333 13.2464 48.929 13.9643 50.5902L13.9702 50.5843ZM25.4623 52.115C25.5691 52.026 25.6819 51.937 25.7887 51.848C24.9343 49.2375 24.0978 46.627 23.2138 44.0224C23.0298 43.4766 22.5671 43.2096 21.956 43.3936C21.3152 43.5893 21.072 44.0699 21.2262 44.681C21.4576 45.5769 21.7483 46.4609 22.039 47.339C22.2348 47.9382 22.3416 48.6323 22.7154 49.101C23.5519 50.163 24.5309 51.1182 25.4564 52.115H25.4623ZM18.9539 46.2117C18.3844 44.3844 17.8504 42.6104 17.2808 40.8543C17.1088 40.3262 16.6875 40.0296 16.1239 40.2016C15.5306 40.3796 15.2933 40.8602 15.4713 41.4416C15.9637 43.0435 16.4977 44.6335 17.0079 46.2117H18.9539Z" fill="#A11C22"/>
<path d="M57.3467 24.4913C54.9676 24.1413 52.5945 23.7616 50.2094 23.4471C48.9991 23.2869 48.1981 22.6699 47.6761 21.5842C46.7564 19.6797 45.8072 17.7871 44.8698 15.8886C44.7452 15.6394 44.5969 15.408 44.3833 15.0224C44.0688 15.6394 43.8196 16.114 43.5823 16.6005C42.7458 18.2914 41.9033 19.9764 41.0786 21.6732C40.5803 22.6936 39.803 23.2751 38.6639 23.4353C36.3916 23.7497 34.1252 24.0998 31.8588 24.4379C31.7283 24.4557 31.5978 24.4913 31.3249 24.5507C31.5978 24.8473 31.7758 25.0609 31.9716 25.2507C33.4667 26.7162 34.938 28.1994 36.4628 29.6292C37.4239 30.5311 37.7384 31.5634 37.4892 32.8508C37.0858 34.957 36.7416 37.081 36.3797 39.1931C36.3441 39.3889 36.3501 39.5847 36.3263 39.9348C36.6764 39.7627 36.9315 39.6559 37.1747 39.5254C39.0496 38.5405 40.9303 37.5735 42.7932 36.5649C43.8849 35.9716 44.9232 35.9834 46.0148 36.5708C48.1032 37.698 50.2094 38.7838 52.458 39.9585C52.4105 39.4245 52.3571 39.0389 52.3453 38.6532C52.3156 37.876 52.7487 37.2887 53.4429 37.2175C54.1786 37.1463 54.6413 37.5201 54.8668 38.2261C55.5669 40.445 54.671 42.2664 52.6716 42.4622C52.0546 42.5215 51.3485 42.2901 50.779 42.0054C48.827 41.0442 46.9285 39.9763 44.9825 39.0033C44.6621 38.8431 44.1341 38.849 43.8137 39.0033C41.8143 40 39.8564 41.0798 37.8689 42.0884C36.1602 42.9546 34.3863 42.3495 33.882 40.6882C33.7099 40.1305 33.7218 39.472 33.8108 38.8906C34.143 36.7428 34.5643 34.607 34.8906 32.4533C34.938 32.127 34.7719 31.6524 34.5405 31.4091C32.9683 29.8191 31.3545 28.2706 29.7526 26.7102C28.8924 25.8737 28.5127 24.8829 28.9042 23.7082C29.2839 22.5691 30.1739 22.0232 31.3189 21.8452C32.2089 21.7088 33.0988 21.5901 33.9888 21.4655C35.3118 21.2757 36.6408 21.1273 37.946 20.8722C38.2961 20.801 38.7173 20.4807 38.8894 20.1603C39.8861 18.2617 40.8294 16.3335 41.755 14.3994C42.3008 13.2603 43.1018 12.4712 44.407 12.4712C45.7122 12.4712 46.5191 13.2425 47.059 14.3875C47.9668 16.2979 48.9398 18.1787 49.8534 20.0891C50.0908 20.5815 50.3815 20.8485 50.9392 20.9197C53.0691 21.1985 55.1931 21.5249 57.3171 21.8156C58.5215 21.9817 59.4826 22.4801 59.9038 23.6963C60.331 24.9244 59.886 25.9093 59.008 26.7577C57.4654 28.2587 55.9406 29.7657 54.3803 31.2489C53.965 31.6405 53.7039 32.0084 53.9294 32.6017C54.0184 32.833 54.0006 33.1178 53.9828 33.3789C53.9472 34.0434 53.5853 34.4646 52.9208 34.5595C52.2681 34.6544 51.7282 34.4053 51.5443 33.7645C51.0578 32.0795 50.9154 30.9226 52.3868 29.5521C53.8938 28.146 55.3414 26.6746 56.8306 25.2448C57.0382 25.049 57.323 24.9363 57.5722 24.788C57.4951 24.6812 57.4239 24.5744 57.3467 24.4676V24.4913Z" fill="#13894B"/>
<path d="M6.72594 20.7951C6.96326 19.4246 7.21838 17.793 7.53282 16.1734C7.65742 15.5385 7.55062 15.0995 7.05226 14.6486C5.95466 13.6578 4.92233 12.5899 3.86034 11.5635C3.11872 10.8396 2.75088 9.99716 3.07125 8.97076C3.39163 7.94437 4.16291 7.44006 5.19525 7.29174C6.69035 7.07816 8.17951 6.84084 9.67461 6.66285C10.2798 6.59165 10.6476 6.3484 10.9027 5.77291C11.5079 4.42613 12.1961 3.11495 12.8428 1.78598C13.3174 0.818906 13.9997 0.184082 15.1329 0.184082C16.2602 0.184082 16.9425 0.824839 17.4052 1.78598C18.0519 3.11495 18.752 4.4202 19.3512 5.76698C19.6123 6.35434 19.992 6.57979 20.5912 6.65098C21.9736 6.81711 23.35 7.02476 24.7265 7.22055C25.6105 7.34514 26.4352 7.57652 26.9395 8.41307C27.5506 9.4276 27.3963 10.5371 26.447 11.4923C25.3198 12.6255 24.1451 13.7052 23.0415 14.8562C22.8161 15.0936 22.6737 15.5623 22.7211 15.8886C22.9407 17.4964 23.2314 19.0924 23.4984 20.7002C23.6585 21.6673 23.3856 22.4979 22.5906 23.0852C21.76 23.6963 20.8701 23.7022 19.9683 23.2276C18.58 22.4979 17.1857 21.7918 15.8152 21.0324C15.3287 20.7654 14.9431 20.7476 14.4506 21.0265C13.0327 21.8156 11.6028 22.5869 10.1374 23.2869C8.4287 24.0998 6.67848 22.931 6.72594 20.801V20.7951ZM20.8701 20.7595C20.5912 19.0864 20.4073 17.621 20.0869 16.1852C19.8021 14.9037 20.17 13.9544 21.0955 13.0645C22.1753 12.0262 23.1542 10.8871 24.1747 9.80137C22.7389 9.58779 21.226 9.31487 19.7072 9.14282C18.5206 9.00636 17.7375 8.43087 17.2391 7.357C16.5924 5.9687 15.8864 4.59819 15.1329 3.06749C14.3676 4.61599 13.6556 6.02803 12.9733 7.45786C12.4928 8.46646 11.7333 9.00043 10.6239 9.13689C9.08132 9.32674 7.54469 9.58779 6.11485 9.80137C7.08785 10.8515 8.00746 11.9788 9.06945 12.9518C10.1374 13.9248 10.4518 15.0046 10.1552 16.3869C9.85854 17.7693 9.66868 19.1754 9.39577 20.7714C10.8909 19.9823 12.2317 19.3178 13.531 18.5821C14.6227 17.9592 15.6432 17.9592 16.7348 18.5821C18.0401 19.3237 19.3868 19.9882 20.876 20.7714L20.8701 20.7595Z" fill="#13894B"/>
<path d="M65.2768 20.7417C65.5141 19.3712 65.7811 17.6803 66.1015 16.0013C66.1964 15.4911 66.1015 15.1351 65.7159 14.7732C64.5945 13.723 63.5088 12.6314 62.4053 11.5575C61.6696 10.8396 61.278 10.015 61.6043 8.97076C61.9306 7.93843 62.6901 7.43413 63.7165 7.28581C65.2056 7.06629 66.7007 6.83491 68.1958 6.65098C68.795 6.57979 69.1748 6.35434 69.4358 5.77291C70.041 4.42613 70.7292 3.11495 71.3759 1.78598C71.8564 0.830772 72.5328 0.184082 73.666 0.184082C74.7932 0.184082 75.4815 0.812973 75.9502 1.76818C76.6087 3.12089 77.3148 4.4558 77.9377 5.83224C78.175 6.36027 78.5073 6.56199 79.0412 6.63319C80.3939 6.80524 81.7407 7.00696 83.0934 7.20275C83.3545 7.23835 83.6096 7.27988 83.8647 7.33921C85.8522 7.79011 86.5345 9.86664 85.1344 11.3499C84.0368 12.5127 82.8798 13.6103 81.717 14.702C81.2957 15.0995 81.1474 15.4555 81.2661 16.0606C81.5924 17.6803 81.8712 19.3119 82.0611 20.9494C82.2154 22.2783 81.3966 23.3581 80.127 23.4946C79.5633 23.5599 78.9166 23.3759 78.3886 23.1327C77.0537 22.5038 75.7485 21.8037 74.461 21.074C73.9211 20.7714 73.4939 20.7476 72.9422 21.0562C71.5539 21.8393 70.1478 22.5928 68.7061 23.2751C66.9855 24.0938 65.259 22.9428 65.2946 20.7417H65.2768ZM67.9229 20.7536C69.062 20.1544 70.1003 19.739 70.9902 19.122C72.8176 17.8464 74.5381 17.8583 76.3595 19.128C77.2614 19.7568 78.3055 20.1721 79.415 20.7536C79.1362 19.1102 78.9404 17.6447 78.6319 16.203C78.3649 14.9393 78.6734 13.9604 79.6167 13.0764C80.7084 12.05 81.7111 10.9286 82.7968 9.80731C81.4085 9.59965 80.0202 9.30894 78.62 9.20215C77.0656 9.08349 76.146 8.31221 75.5586 6.91203C75.0306 5.65425 74.3601 4.44986 73.6719 3.06749C72.8947 4.64565 72.1887 6.03989 71.5183 7.446C71.0377 8.44866 70.2783 8.98856 69.1688 9.12502C67.6203 9.31487 66.0837 9.57592 64.6301 9.78951C65.6328 10.8634 66.5821 11.9966 67.6559 12.9933C68.6586 13.9248 68.979 14.9512 68.7001 16.2742C68.3975 17.6862 68.2018 19.122 67.9229 20.7536Z" fill="#13894B"/>
</g>
<defs>
<clipPath id="clip0_379_6918">
<rect width="90" height="90" fill="white" transform="translate(0.5)"/>
</clipPath>
</defs>
</svg>
