<svg width="92" height="91" viewBox="0 0 92 91" fill="none" xmlns="http://www.w3.org/2000/svg">
<g clip-path="url(#clip0_379_6924)">
<mask id="mask0_379_6924" style="mask-type:luminance" maskUnits="userSpaceOnUse" x="0" y="0" width="91" height="91">
<path d="M90.835 0.934082H0.834961V90.9341H90.835V0.934082Z" fill="white"/>
</mask>
<g mask="url(#mask0_379_6924)">
<path d="M90.8359 51.3816C90.2354 52.5971 89.2615 53.0144 87.9142 52.9851C85.0438 52.9192 82.1734 52.9705 79.303 52.9632C77.6262 52.9632 76.7768 52.0992 76.7695 50.4152C76.7695 47.4278 76.7695 44.4405 76.7695 41.4532C76.7695 39.7619 77.6189 38.9126 79.303 38.9052C82.1734 38.9052 85.0438 38.9492 87.9142 38.8833C89.2615 38.854 90.2354 39.2713 90.8359 40.4867V51.389V51.3816ZM79.4714 41.5777V50.2614H88.1558V41.5777H79.4714Z" fill="#13894B"/>
<path d="M42.1336 90.9339C41.8334 90.6264 41.4599 90.3555 41.2476 89.9967C40.2224 88.2907 39.2559 86.5481 38.2454 84.8421C37.8573 84.1905 37.8646 83.6121 38.2454 82.9531C39.2485 81.2691 40.2297 79.5704 41.189 77.8571C41.5698 77.1762 42.0823 76.8467 42.8805 76.854C44.8429 76.8833 46.8053 76.8833 48.7677 76.854C49.5732 76.8394 50.0784 77.1689 50.4665 77.8571C51.4257 79.5631 52.407 81.2691 53.4101 82.9531C53.7982 83.6048 53.8055 84.1832 53.4101 84.8421C52.3923 86.5555 51.4257 88.2907 50.4079 89.9967C50.1956 90.3555 49.8221 90.6191 49.5219 90.9339H42.1409H42.1336ZM45.7728 88.1736C47.867 88.9131 48.7604 87.6977 49.7416 86.0649C50.6935 84.4834 50.6642 83.3705 49.7636 81.767C48.7823 80.0097 47.7133 79.3947 45.7069 79.424C43.869 79.4533 42.9171 79.9878 41.9871 81.5839C40.9986 83.2826 40.9034 84.4907 41.9798 86.1894C42.9537 87.7196 43.7811 88.8692 45.7728 88.1736Z" fill="#13894B"/>
<path d="M54.9548 26.8898C59.3849 29.1668 62.5774 32.3738 64.8327 36.723C65.5943 36.1592 66.3558 35.676 67.0148 35.0829C68.018 34.1823 68.9406 33.2012 69.9072 32.2567C70.6101 31.5757 71.3497 31.5098 71.9209 32.0516C72.5286 32.6301 72.4847 33.4062 71.7524 34.131C70.0243 35.837 68.4281 37.6895 66.2606 38.8976C66.0776 39.0001 65.9311 39.4321 65.9897 39.6444C67.2491 43.8325 67.2418 48.0059 66.0043 52.194C65.9384 52.421 66.1142 52.831 66.3119 52.9994C67.4981 53.9952 68.8015 54.8518 69.9145 55.9208C72.946 58.8496 75.9043 61.8662 78.8918 64.8461C79.0749 65.0292 79.2579 65.2269 79.463 65.3953C80.1513 65.9591 81.0153 65.9151 81.6084 65.3147C82.1942 64.7144 82.2089 63.865 81.6304 63.1694C81.4839 62.9937 81.3009 62.8326 81.1398 62.6716C78.5916 60.1236 76.0434 57.5756 73.4879 55.0349C72.1478 53.7096 71.4669 52.1354 71.4815 50.2391C71.5108 47.3689 71.5108 44.4988 71.4815 41.6286C71.4669 39.7323 72.1405 38.1581 73.4879 36.8328C75.7212 34.6289 77.9252 32.4031 80.1439 30.1919C80.4515 29.8844 80.7663 29.5695 81.0739 29.262C82.1796 28.1564 82.348 27.3144 81.6084 26.5529C80.8615 25.7842 79.9828 25.9379 78.8991 27.0215C78.0497 27.8709 77.2516 28.7788 76.3216 29.5329C75.9628 29.8258 75.2745 29.921 74.8205 29.8038C74.4983 29.716 74.1688 29.1376 74.1029 28.7349C74.0517 28.4054 74.2933 27.9368 74.5496 27.6659C75.5528 26.5969 76.5852 25.5572 77.6543 24.5614C79.3312 23.0092 81.8647 23.0751 83.4537 24.6639C85.0793 26.2894 85.1525 28.8447 83.5269 30.5141C80.8908 33.2158 78.2035 35.881 75.5088 38.5315C74.5496 39.476 74.0883 40.5377 74.1103 41.8922C74.1615 44.5866 74.1615 47.2811 74.1103 49.9755C74.0883 51.33 74.535 52.399 75.5015 53.3435C78.1815 55.9648 80.8322 58.6226 83.4683 61.2877C84.7644 62.5983 85.0573 64.3995 84.325 65.9884C83.6148 67.5406 81.9965 68.5217 80.2831 68.4265C79.0822 68.3606 78.123 67.8115 77.2809 66.9622C74.1395 63.8064 70.9982 60.6507 67.8203 57.5316C66.9489 56.675 65.9531 55.9501 64.8986 55.0642C62.6433 59.4426 59.4654 62.6935 54.9914 64.9487C55.8335 65.9737 56.5584 66.9914 57.4224 67.8701C60.5638 71.0697 63.7417 74.2327 66.9123 77.3958C68.0253 78.5087 68.5745 79.8047 68.2596 81.3715C67.9375 82.9604 66.9855 84.066 65.4405 84.5712C63.8222 85.0983 62.3651 84.7103 61.1569 83.5168C58.5794 80.9615 55.9946 78.4062 53.4683 75.7923C52.3992 74.6867 51.2203 74.1376 49.6607 74.1888C46.9953 74.2693 44.3299 74.2327 41.6646 74.2035C40.4051 74.1888 39.4093 74.6208 38.5306 75.5141C35.8798 78.2085 33.2072 80.881 30.5198 83.5388C29.2091 84.8348 27.4151 85.1423 25.8188 84.4247C24.2665 83.7218 23.2779 82.1184 23.3512 80.405C23.4024 79.3361 23.8052 78.4135 24.552 77.652C25.7676 76.422 26.9831 75.1919 28.2133 73.9838C28.9016 73.3102 29.6704 73.2736 30.2269 73.852C30.7615 74.4085 30.7029 75.1992 30.0365 75.8728C28.9309 77.0004 27.8032 78.1133 26.6902 79.2336C25.8335 80.0975 25.7529 80.9981 26.4486 81.6937C27.1442 82.3893 28.0375 82.3014 28.9089 81.4301C31.4791 78.8601 34.0639 76.3121 36.6048 73.7129C38.04 72.2412 39.7241 71.531 41.789 71.5676C44.513 71.6188 47.2369 71.6115 49.9609 71.5676C51.9892 71.5383 53.6514 72.2412 55.0646 73.6836C57.5396 76.217 60.0658 78.7064 62.5701 81.2178C62.7751 81.4228 62.9802 81.6424 63.2072 81.8182C63.8515 82.3014 64.6497 82.2501 65.2135 81.7157C65.7993 81.1592 65.8725 80.3172 65.3673 79.6436C65.1915 79.4093 64.9719 79.2116 64.7668 79.0066C61.7866 76.0193 58.7698 73.0686 55.8408 70.03C54.7717 68.9244 53.915 67.6138 52.9191 66.4277C52.7507 66.23 52.3407 66.0469 52.121 66.1128C47.9326 67.3429 43.7515 67.3649 39.563 66.0982C39.3434 66.0323 38.9333 66.2226 38.7576 66.4277C37.3517 68.0311 36.019 69.6859 34.5984 71.2747C33.998 71.9483 33.2072 71.9117 32.658 71.3479C32.1308 70.8061 32.1674 70.052 32.7825 69.4003C33.3243 68.8292 33.9248 68.302 34.4446 67.709C35.1915 66.8596 35.8872 65.9591 36.6926 64.9779C32.3358 62.7448 29.1139 59.5744 26.8586 55.174C25.8994 55.9721 24.9475 56.653 24.1273 57.4657C20.8908 60.6507 17.6909 63.8797 14.4691 67.0793C12.9313 68.6022 10.8811 68.8732 9.17494 67.8261C6.82444 66.3837 6.45832 63.2719 8.44269 61.2511C11.0348 58.6226 13.6416 56.0087 16.285 53.4314C17.2955 52.443 17.7861 51.3447 17.7495 49.9242C17.6909 47.2591 17.6909 44.594 17.7495 41.9288C17.7788 40.5377 17.2955 39.4613 16.307 38.4949C13.6489 35.8956 11.0202 33.2524 8.40608 30.6092C7.21253 29.4011 6.8464 27.9295 7.38826 26.3186C7.90083 24.7811 9.01384 23.8292 10.6101 23.529C12.1405 23.2362 13.4219 23.756 14.513 24.8543C17.6982 28.0466 20.8835 31.2462 24.0981 34.4093C24.9255 35.222 25.8701 35.9103 26.8513 36.7303C29.1066 32.3518 32.2992 29.1595 36.7 26.9264C35.8432 25.9013 35.133 24.9055 34.2836 24.0342C31.0837 20.7687 27.8325 17.5617 24.6106 14.3108C23.4171 13.1101 23.0217 11.653 23.5415 10.0276C24.0322 8.48262 25.1305 7.51614 26.7195 7.18665C28.0302 6.91575 29.2457 7.21594 30.2343 8.11653C31.2081 9.00247 32.1308 9.95431 33.0387 10.8989C33.6392 11.5212 33.6319 12.2314 33.0973 12.7806C32.5555 13.337 31.8013 13.3297 31.1496 12.7074C30.4466 12.0411 29.7803 11.3455 29.092 10.6572C28.0448 9.61018 27.1954 9.45642 26.4486 10.1886C25.6797 10.9355 25.8335 11.8141 26.9099 12.8977C29.8462 15.8411 32.8264 18.7552 35.7114 21.7425C36.8244 22.892 37.7251 24.2392 38.7502 25.4766C38.9113 25.667 39.2848 25.8647 39.4752 25.8061C43.8393 24.4809 48.1889 24.5614 52.4944 25.9086C56.0824 20.8639 60.9079 17.0272 65.0671 12.5609C65.8066 11.7628 65.8798 10.8915 65.2355 10.2253C64.5691 9.52964 63.6465 9.57357 62.841 10.3717C60.2489 12.9563 57.6421 15.5336 55.0866 18.1548C53.6514 19.6265 51.9745 20.3587 49.9096 20.3221C47.1564 20.2781 44.3958 20.2415 41.6499 20.3294C38.8747 20.4173 37.0514 18.8723 35.4185 16.954C34.9645 16.4195 35.0378 15.7825 35.5357 15.2846C36.0629 14.7575 36.6926 14.7062 37.2711 15.1821C37.769 15.5922 38.2011 16.0681 38.655 16.5294C39.3873 17.2689 40.2587 17.6789 41.3204 17.6716C44.3153 17.6716 47.3028 17.6642 50.2977 17.6716C51.4254 17.6716 52.3187 17.1956 53.0949 16.4122C55.7822 13.7104 58.4622 11.0087 61.1715 8.32886C62.4749 7.04022 64.2689 6.74734 65.8725 7.47953C67.4102 8.18242 68.3988 9.81519 68.3036 11.5212C68.2377 12.722 67.6812 13.6812 66.8391 14.5232C63.7051 17.6423 60.5711 20.7687 57.4664 23.9244C56.595 24.8177 55.8408 25.8281 54.9328 26.9044L54.9548 26.8898ZM54.4129 62.2323C54.7205 62.0712 54.9548 61.9687 55.1745 61.8369C59.5899 59.1571 62.4383 55.3131 63.771 50.3269C64.0199 49.3971 63.9028 48.9065 62.9582 48.4379C57.481 45.7288 56.2948 38.0775 60.2928 34.5996C58.3597 31.5391 52.4285 27.8855 49.7559 28.0027C50.0268 28.9399 50.4808 29.8917 50.5613 30.8802C50.8103 33.8601 49.1115 35.8151 46.8342 37.3893C46.102 37.8945 45.3331 37.748 44.9011 37.1037C44.4764 36.4667 44.6814 35.7931 45.3624 35.2C46.0653 34.5923 46.7976 33.9846 47.3541 33.2451C48.2548 32.0443 48.1742 30.6166 47.2882 29.4085C46.1605 27.8782 44.762 27.3144 42.7995 27.6878C34.3421 29.3206 28.367 35.7272 27.4224 44.2864C27.3639 44.8429 27.481 45.1065 28.0668 45.2822C30.9592 46.1535 32.0649 45.3994 32.3138 42.434C32.431 41.0721 32.5921 39.681 32.9875 38.385C33.6172 36.3276 35.4332 35.2513 37.5494 35.5076C38.472 35.6174 39.3946 35.8297 40.2953 36.0567C41.1154 36.2617 41.5108 36.9133 41.3351 37.6162C41.152 38.3484 40.5516 38.7292 39.7168 38.5827C38.9699 38.4509 38.2303 38.2532 37.4835 38.1361C36.3704 37.9604 35.6821 38.3997 35.3526 39.476C35.2135 39.9226 35.1549 40.3912 35.0963 40.8525C34.9645 41.9288 34.9133 43.0124 34.7375 44.0814C34.2836 46.8198 32.4969 48.2915 29.729 48.2036C29.0114 48.1816 28.3011 48.0352 27.5835 47.9473C27.3931 50.7004 29.9194 56.3382 32.204 58.2199C32.3211 57.949 32.4237 57.6854 32.5335 57.4291C33.566 55.1228 35.2501 53.6071 37.813 53.3362C40.5369 53.0507 42.7556 53.9879 44.2787 56.3528C44.5496 56.7702 44.8352 57.1802 45.1134 57.5902C45.8237 58.6445 46.8269 58.9447 48.0278 58.7104C48.4012 58.6372 48.7673 58.5201 49.1334 58.4395C51.2643 57.9929 52.9558 58.8422 53.8711 60.8191C54.0614 61.2438 54.2006 61.6904 54.3983 62.2176L54.4129 62.2323ZM11.3497 66.0103C11.9135 65.6149 12.4115 65.366 12.7849 64.9999C15.9116 61.9101 18.987 58.7763 22.1356 55.7158C23.1168 54.764 24.2518 53.9659 25.3575 53.1605C25.7236 52.8896 25.8554 52.6992 25.709 52.2453C24.391 48.0425 24.391 43.8325 25.709 39.6371C25.8554 39.1758 25.709 38.9927 25.3429 38.7218C24.2372 37.9091 23.1095 37.1037 22.1283 36.1592C19.7192 33.8455 17.3907 31.4586 15.0256 29.1009C14.1542 28.2296 13.3048 27.3437 12.4041 26.509C11.7524 25.9013 10.8664 25.9526 10.266 26.5456C9.66554 27.1387 9.62893 27.9954 10.2001 28.6836C10.3685 28.8886 10.5662 29.0643 10.7493 29.2474C13.2975 31.7954 15.8457 34.3434 18.4012 36.8841C19.7119 38.1873 20.3856 39.7396 20.3709 41.5993C20.349 44.4695 20.3416 47.3396 20.3709 50.2098C20.3929 52.1428 19.6973 53.7316 18.3353 55.0788C15.7724 57.6122 13.2316 60.1675 10.6834 62.7155C10.4564 62.9425 10.1195 63.1621 10.061 63.433C9.95112 63.9382 9.84128 64.5679 10.0463 64.9926C10.2513 65.4172 10.8371 65.6515 11.3497 66.0323V66.0103ZM45.8603 64.5972C47.6616 64.2531 49.4556 63.9016 51.257 63.5721C51.8061 63.4696 51.8794 63.1841 51.7622 62.6935C51.3888 61.1706 50.7737 60.7825 49.236 61.1486C49.009 61.1999 48.782 61.2511 48.5477 61.2951C46.2631 61.749 44.3958 61.0827 43.0046 59.179C42.6092 58.6372 42.3309 57.9856 41.8549 57.5316C41.2838 56.9825 40.6321 56.3894 39.9072 56.1478C37.4029 55.3278 35.2867 56.7409 34.5911 59.5305C34.43 60.1748 34.5398 60.5848 35.1256 60.9875C38.3475 63.2061 41.8989 64.3556 45.853 64.5899L45.8603 64.5972ZM64.2836 46.1315C64.2689 42.7855 63.5001 39.7615 61.9111 36.9207C59.3263 38.9854 60.6663 44.323 64.2836 46.1315Z" fill="#A11C22"/>
<path d="M52.8535 8.02899C52.8242 11.8949 49.6243 15.036 45.7361 14.9921C41.8698 14.9554 38.7505 11.7485 38.7944 7.85327C38.8457 4.03127 42.0236 0.91949 45.8679 0.934134C49.7414 0.948777 52.8828 4.1411 52.8535 8.02899ZM50.2174 8.04364C50.254 5.61279 48.2989 3.59928 45.8825 3.57732C43.4881 3.55535 41.4891 5.46635 41.4378 7.84595C41.3792 10.2841 43.3124 12.3123 45.7288 12.3562C48.1598 12.4001 50.1881 10.4598 50.2174 8.04364Z" fill="#13894B"/>
<path d="M14.8867 45.978C14.8867 47.3545 14.9014 48.731 14.8867 50.1075C14.8648 51.9453 13.3637 52.963 11.6868 52.2235C8.50155 50.8177 5.34558 49.3534 2.17497 47.911C1.32556 47.5302 0.834961 46.8713 0.834961 45.9268C0.834961 44.9822 1.33289 44.3306 2.18229 43.9425C5.3529 42.5001 8.50887 41.0431 11.6868 39.63C13.3417 38.8978 14.8574 39.9302 14.8794 41.7533C14.894 43.1591 14.8794 44.5649 14.8794 45.9707L14.8867 45.978ZM12.2067 42.2951C9.54866 43.5032 6.96384 44.6747 4.17399 45.9341C6.96384 47.2008 9.54133 48.3723 12.2067 49.573V42.2951Z" fill="#13894B"/>
<path d="M47.9909 52.4579C44.2345 52.5311 42.4552 50.1296 43.5608 47.2008C43.9782 46.0952 44.7251 45.3045 45.9113 45.0555C47.2074 44.7846 48.1813 44.0964 48.9794 43.0347C50.0851 41.563 51.5203 41.1823 53.1532 42.0536C54.0246 42.5222 54.8667 43.2031 55.4744 43.9792C56.9389 45.8536 56.6973 48.0355 54.9253 49.6317C52.8091 51.528 50.2169 52.2456 47.9909 52.4579ZM47.5076 49.844C49.2504 49.7122 50.9711 49.207 52.5235 48.1966C54.171 47.1203 54.1491 45.7877 52.5235 44.6675C51.8791 44.2282 51.3519 44.133 50.832 44.9018C49.9314 46.2343 48.628 47.0544 47.0829 47.4717C46.1237 47.728 45.7869 48.182 45.9187 48.9947C46.0651 49.8953 46.7754 49.8074 47.515 49.8367L47.5076 49.844Z" fill="#13894B"/>
</g>
</g>
<defs>
<clipPath id="clip0_379_6924">
<rect width="91" height="91" fill="white" transform="translate(0.5)"/>
</clipPath>
</defs>
</svg>
