<svg width="79" height="90" viewBox="0 0 79 90" fill="none" xmlns="http://www.w3.org/2000/svg">
<g clip-path="url(#clip0_379_6935)">
<path d="M36.9978 89.9343C35.3462 89.6563 33.6547 89.5053 32.035 89.0764C19.0136 85.6683 10.8992 77.4221 7.67572 64.4173C7.41242 63.3527 7.33263 62.2485 7.12518 61.168C7.07731 60.9376 6.8938 60.6437 6.69433 60.5563C2.76079 58.888 0.670342 55.6388 0.790024 51.3409C0.877791 48.4254 1.87514 45.907 4.15707 44.0004C4.6358 43.5952 5.19432 43.1742 5.77677 43.0153C6.79805 42.7452 6.98954 42.1732 6.96561 41.212C6.8938 38.6936 6.99752 36.1673 6.91773 33.6569C6.86986 32.1475 7.44433 30.9797 8.71296 30.3441C10.4603 29.4623 12.2954 28.7076 14.1545 28.0959C15.7662 27.5636 17.4737 27.3174 19.245 26.9202C19.245 25.085 19.245 23.2419 19.245 21.3909C19.245 19.7226 19.4923 18.1099 20.1865 16.5767C21.4711 13.7723 23.5934 11.8736 26.5775 10.7376C25.4046 8.88663 25.0615 6.93233 25.8354 4.86681C26.3062 3.60367 27.144 2.61858 28.277 1.89565C30.5429 0.441841 33.535 0.664281 35.5855 2.41997C37.9233 4.42988 38.2664 7.04355 36.6627 10.6899C37.4526 11.111 38.2345 11.54 39.0324 11.9293C39.176 12.0008 39.4233 11.9849 39.5749 11.9134C40.3489 11.532 41.1068 11.111 41.9366 10.6741C40.8914 9.00579 40.4925 7.19449 41.1228 5.2402C41.5616 3.89761 42.3675 2.82513 43.5324 2.0307C45.8622 0.441841 49.0378 0.672226 51.1122 2.57091C53.3942 4.65232 53.7213 7.52815 52.0138 10.6979C52.1814 10.7853 52.341 10.8886 52.5085 10.9601C56.8969 12.8826 59.1309 16.2589 59.2985 20.9858C59.3703 22.948 59.3065 24.9182 59.3065 26.9043C61.0458 27.2935 62.7613 27.5795 64.4129 28.088C66.0964 28.6043 67.756 29.2478 69.3438 30.0105C70.9316 30.7731 71.7135 32.0601 71.6337 33.9429C71.522 36.5725 71.5938 39.21 71.6337 41.8475C71.6337 42.1335 71.8651 42.5863 72.0965 42.6816C75.3598 43.9448 77.0273 46.4711 77.6098 49.7441C78.1683 52.8901 77.4821 55.7897 75.3598 58.2684C74.4741 59.3011 73.397 60.0876 72.0725 60.461C71.5379 60.6119 71.4262 60.9138 71.3784 61.3905C69.998 74.9752 59.3623 86.5977 45.8941 89.2511C44.442 89.5371 42.9739 89.7199 41.5217 89.9502H36.9818L36.9978 89.9343ZM10.0614 36.9141C10.0454 37.1921 10.0215 37.3907 10.0215 37.5893C10.0215 44.2546 9.98957 50.9119 10.0374 57.5772C10.0534 59.2773 10.205 60.9933 10.4683 62.6774C13.0056 78.5184 28.8594 89.4895 44.6734 86.3674C58.7719 83.5868 68.506 71.8293 68.5698 57.4819C68.5938 50.904 68.5698 44.3341 68.5698 37.7562C68.5698 37.4861 68.5379 37.216 68.514 36.8823C67.7959 37.1604 67.1895 37.4225 66.5592 37.637C61.4528 39.3848 56.1309 39.9329 50.8011 40.3699C44.2106 40.9101 37.6121 41.0213 31.0137 40.5843C23.9365 40.1077 16.8673 39.5913 10.0614 36.922V36.9141ZM37.7797 31.5993H56.1628C56.1868 31.4563 56.2187 31.369 56.2187 31.2816C56.2187 27.7543 56.2586 24.2191 56.2107 20.6918C56.1628 17.1407 53.6176 14.0901 50.1069 13.4546C48.7186 13.2083 47.2744 13.2718 45.8542 13.2639C41.0271 13.2639 37.7637 16.5131 37.7478 21.3274C37.7398 24.4495 37.7478 27.5795 37.7478 30.7016C37.7478 30.9876 37.7717 31.2657 37.7877 31.5993H37.7797ZM36.6946 14.098C36.1919 13.9233 35.5217 13.5499 34.8275 13.4784C33.3275 13.3275 31.8195 13.2718 30.3115 13.2718C25.644 13.2718 22.3647 16.5687 22.3487 21.2161C22.3407 24.4018 22.3487 27.5875 22.3487 30.7731C22.3487 31.0512 22.3806 31.3292 22.3966 31.5835H34.6919C34.6919 28.1992 34.6839 24.9023 34.6919 21.6054C34.6919 20.7713 34.636 19.8894 34.8674 19.103C35.3621 17.4664 36.0323 15.8776 36.6866 14.098H36.6946ZM9.86989 33.4663C10.955 33.9509 11.8885 34.4752 12.8859 34.793C17.3061 36.215 21.8939 36.8426 26.4977 37.2319C37.285 38.1454 48.0564 38.0978 58.7639 36.358C61.5006 35.9131 64.1655 35.0392 66.8384 34.2845C67.4608 34.1097 68.0033 33.6331 68.8012 33.1564C65.7374 31.2657 62.5618 30.7414 59.3224 30.074C59.3224 31.0512 59.3224 31.8536 59.3224 32.6639C59.3224 34.2051 58.8277 34.7056 57.2958 34.7056C45.2798 34.7056 33.2717 34.7056 21.2556 34.7056C19.7556 34.7056 19.2609 34.213 19.245 32.7354C19.237 31.8774 19.245 31.0194 19.245 30.1614C15.7981 30.4474 11.2103 31.9966 9.86191 33.4663H9.86989ZM31.5483 10.1577C33.2717 10.1736 34.6759 8.79924 34.6759 7.09916C34.6759 5.43086 33.3036 4.06444 31.628 4.05649C29.9046 4.04061 28.5004 5.41497 28.5083 7.11505C28.5083 8.78335 29.8807 10.1497 31.5562 10.1577H31.5483ZM46.9952 10.1577C48.6787 10.1577 50.0511 8.80719 50.075 7.14683C50.0989 5.44675 48.7027 4.05649 46.9872 4.05649C45.2558 4.05649 43.9074 5.42291 43.9313 7.15477C43.9553 8.84691 45.2957 10.1656 46.9952 10.1577ZM71.7055 45.8594V57.2992C74.1151 55.7103 74.905 53.5177 74.7135 50.8802C74.5619 48.759 73.5885 47.1225 71.7055 45.8594ZM6.91773 45.8355C4.4842 47.4562 3.66239 49.6409 3.86186 52.2704C4.02143 54.3995 4.97889 56.0757 6.91773 57.2992V45.8355Z" fill="#A11C22"/>
<path d="M25.4519 59.2451C23.4014 59.261 21.7497 58.411 20.4013 56.9254C19.1726 55.5669 18.3747 53.9701 17.8481 52.2383C17.5369 51.2293 17.9598 50.3713 18.8136 50.133C19.7152 49.8788 20.3614 50.3555 20.8003 51.3405C21.3269 52.5163 21.8455 53.7477 22.6354 54.7486C24.1992 56.7188 26.5769 56.7506 28.1487 54.7963C28.9945 53.7477 29.4972 52.4051 30.0956 51.1658C30.4386 50.4587 30.9014 50.0456 31.6993 50.1012C32.4254 50.1489 32.8802 50.5699 33.0557 51.2452C33.1195 51.4835 33.1115 51.7695 33.0477 52.0079C32.4573 54.1052 31.4918 55.988 29.8722 57.4974C28.6275 58.6493 27.1594 59.2451 25.4519 59.2531V59.2451Z" fill="#13894B"/>
<path d="M53.2591 59.237C51.1527 59.2529 49.517 58.4187 48.1846 56.9649C46.9239 55.5985 46.1101 53.9779 45.5835 52.2142C45.2883 51.245 45.6872 50.4109 46.4851 50.1408C47.3947 49.8389 48.1048 50.3235 48.5516 51.3483C49.0622 52.5002 49.5569 53.7078 50.3308 54.6849C51.9505 56.7425 54.424 56.7266 56.0277 54.6452C56.7697 53.6839 57.2644 52.5002 57.7591 51.3721C58.2139 50.3314 58.8841 49.8468 59.8096 50.1328C60.6554 50.395 61.0543 51.245 60.7272 52.2619C60.1049 54.2162 59.1873 56.0037 57.6633 57.4336C56.4027 58.6094 54.9107 59.237 53.267 59.237H53.2591Z" fill="#13894B"/>
<path d="M38.3782 64.7903C39.567 64.5043 40.6521 64.2342 41.7372 63.972C42.8463 63.7019 43.6202 64.0753 43.8835 64.9968C44.1309 65.8866 43.6043 66.6493 42.5032 66.9353C40.6202 67.4199 38.7372 67.8965 36.8463 68.3414C35.3542 68.6909 34.4127 67.7773 34.7718 66.3077C35.7452 62.3514 36.7425 58.4031 37.7479 54.4548C38.0112 53.4379 38.809 52.9136 39.6628 53.1281C40.5803 53.3664 40.9952 54.1767 40.7239 55.2571C39.9819 58.2283 39.2319 61.1995 38.4899 64.1706C38.45 64.3295 38.434 64.4884 38.3782 64.7903Z" fill="#13894B"/>
</g>
<defs>
<clipPath id="clip0_379_6935">
<rect width="78" height="90" fill="white" transform="translate(0.5)"/>
</clipPath>
</defs>
</svg>
