<svg width="94" height="91" viewBox="0 0 94 91" fill="none" xmlns="http://www.w3.org/2000/svg">
<g clip-path="url(#clip0_379_6907)">
<mask id="mask0_379_6907" style="mask-type:luminance" maskUnits="userSpaceOnUse" x="0" y="0" width="94" height="91">
<path d="M93.0461 0.934082H0.953125V90.9341H93.0461V0.934082Z" fill="white"/>
</mask>
<g mask="url(#mask0_379_6907)">
<path d="M93.0463 57.2256C92.81 58.7487 92.6154 60.2856 92.3305 61.8017C89.6205 76.2987 77.6476 87.971 62.9717 90.3941C52.3121 92.1525 42.7227 89.6256 34.1548 83.0971C33.7657 82.7994 33.1889 82.6056 32.7025 82.5987C28.2066 82.564 23.7107 82.5779 19.2148 82.571C18.8882 82.571 18.5477 82.5779 18.2281 82.5156C17.5471 82.3771 17.1024 81.8717 17.2205 81.2487C17.3108 80.7848 17.7625 80.321 18.1655 80.0025C18.4018 79.8156 18.8604 79.8917 19.2148 79.8917C22.5989 79.8917 25.9899 79.8917 29.374 79.8917C29.7006 79.8917 30.0272 79.8917 30.5067 79.8917C30.2913 79.594 30.1801 79.4071 30.0341 79.2479C26.1567 74.9971 23.4466 70.1025 21.8901 64.5848C21.7025 63.9133 21.3898 63.7748 20.7644 63.7817C16.331 63.8025 11.8907 63.7956 7.45735 63.7956C5.9981 63.7956 5.32406 63.3802 5.30321 62.4664C5.28237 61.5387 5.94251 61.1094 7.40176 61.1094C11.5989 61.1094 15.796 61.1094 19.9931 61.1094C20.3127 61.1094 20.6324 61.1094 21.0493 61.1094C20.139 55.6471 20.4169 50.3579 21.9109 44.9787C21.4801 44.9787 21.1605 44.9787 20.8478 44.9787C18.5964 44.9787 16.3519 44.9787 14.1004 44.9787C13.8294 44.9787 13.5584 44.9856 13.2944 44.951C12.4883 44.8471 12.0158 44.3279 12.0575 43.5733C12.0992 42.7979 12.5439 42.341 13.3083 42.3133C14.5035 42.2648 15.7056 42.2856 16.9078 42.2856C18.645 42.2856 20.3892 42.3064 22.1264 42.2579C22.4252 42.251 22.8907 42.0017 22.988 41.7525C25.434 35.6187 29.2489 30.5094 34.4328 26.4041C34.4536 26.3902 34.4606 26.3556 34.5231 26.231C34.2382 26.2033 33.995 26.1548 33.7518 26.1548C31.9798 26.1548 30.2148 26.1548 28.4429 26.1548C27.338 26.1548 26.6848 25.6217 26.7057 24.7841C26.7265 23.9741 27.3449 23.4825 28.4151 23.4756C31.5629 23.4617 34.7107 23.4964 37.8585 23.4479C38.4839 23.441 39.1371 23.2333 39.7278 22.991C41.4372 22.2848 43.1119 21.4817 44.8282 20.7825C46.0443 20.284 46.8156 20.5056 47.1353 21.3156C47.4827 22.1948 47.0171 22.8456 45.7524 23.3025C37.3721 26.3071 31.0695 31.7348 26.9628 39.5925C17.3247 58.0356 27.067 80.8748 47.0658 86.8217C65.8763 92.4156 85.3053 81.0617 89.5718 61.9817C93.7064 43.4625 81.2471 25.0748 62.4158 21.9041C59.1081 21.3502 55.8074 21.2464 52.4789 21.7102C51.4852 21.8487 50.7764 21.371 50.6861 20.5402C50.5958 19.7579 51.1378 19.114 52.1176 19.0656C54.5358 18.9479 56.9609 18.9064 59.3791 18.8371C59.6154 18.8371 59.8516 18.8371 60.1504 18.8371C60.8036 16.8641 61.4638 14.891 62.1517 12.821C61.575 12.6271 61.019 12.4402 60.4701 12.2464C58.5869 11.5817 57.7114 9.86482 58.309 7.94713C58.7954 6.38251 59.3027 4.8179 59.8447 3.27405C60.4979 1.40482 62.249 0.539439 64.1669 1.14174C66.2793 1.80636 68.3779 2.50559 70.4764 3.20482C71.491 3.54405 71.887 4.1879 71.6369 4.9979C71.3937 5.77328 70.6293 6.0779 69.6287 5.75944C67.6343 5.11559 65.64 4.47867 63.6666 3.79328C62.8883 3.52328 62.5061 3.71021 62.2698 4.49251C61.8807 5.8079 61.4499 7.10944 60.9843 8.40405C60.7133 9.14482 60.8453 9.55328 61.6514 9.80944C67.683 11.7617 73.7076 13.7417 79.7253 15.7425C80.4897 15.9917 80.8997 15.8464 81.1359 15.0571C81.539 13.7141 81.9768 12.3848 82.4493 11.0625C82.7133 10.3217 82.484 9.96174 81.7613 9.73328C79.8226 9.12405 77.8978 8.47328 75.966 7.82251C74.9862 7.49713 74.604 6.8879 74.8472 6.10559C75.0974 5.28867 75.8131 4.97021 76.8068 5.28867C78.8289 5.93944 80.851 6.59021 82.8593 7.26867C84.8119 7.92636 85.7083 9.65021 85.1037 11.6025C84.6173 13.1671 84.0962 14.7248 83.5472 16.2687C82.894 18.1241 81.2054 18.9617 79.3084 18.4148C78.7664 18.2556 78.2313 18.0825 77.5712 17.8817C77.1195 19.2317 76.6817 20.5471 76.244 21.8625C75.5699 23.891 75.5838 23.8702 77.3071 25.0887C86.4866 31.5756 91.6565 40.4164 92.8864 51.5556C92.9212 51.8464 92.9976 52.1302 93.0532 52.4141V57.2533L93.0463 57.2256ZM62.9369 18.9825C66.3766 20.111 69.7607 21.2187 73.2212 22.3471C73.7702 20.6787 74.3678 18.8787 74.9862 16.9956C71.5257 15.8602 68.1416 14.7456 64.7158 13.6171C64.0835 15.5348 63.4859 17.3348 62.9439 18.9756L62.9369 18.9825Z" fill="#A11C22"/>
<path d="M56.759 83.284C40.9574 83.2909 28.241 70.5109 28.2549 54.6294C28.2688 39.1424 41.1172 26.3832 56.7174 26.3901C72.6094 26.3971 85.3396 39.1494 85.3188 55.0448C85.3049 70.5871 72.4773 83.2701 56.759 83.284ZM69.6492 77.1778C74.9372 74.0694 78.641 69.7701 80.8715 64.1694C80.6978 64.0863 80.5936 64.0309 80.4824 63.9894C74.43 61.9955 68.3845 60.0017 62.3251 58.0424C62.0888 57.9663 61.6927 58.1532 61.4495 58.3263C60.7338 58.8524 60.0389 59.4201 59.3857 60.0155C59.1494 60.2301 58.8993 60.604 58.9132 60.8878C58.9618 61.8986 59.1425 62.9024 59.2328 63.9132C59.3232 64.9309 58.9062 65.5401 58.1071 65.644C57.2733 65.7478 56.6826 65.2009 56.5506 64.1763C56.4255 63.2001 56.2865 62.224 56.217 61.2409C56.1823 60.7355 55.9877 60.5555 55.4874 60.4378C52.0547 59.6348 50.1437 56.2148 51.2973 52.9055C51.4849 52.3655 51.3459 52.1094 50.9776 51.7771C49.2126 50.1986 47.4754 48.6063 45.7243 47.014C44.6403 46.0309 43.5354 45.0617 42.4792 44.044C41.6662 43.2617 41.8468 42.1817 42.8058 41.7732C43.5076 41.4755 44.0079 41.8148 44.4943 42.2578C47.1905 44.7155 49.9075 47.1594 52.5897 49.6309C53.0345 50.0463 53.3263 50.0601 53.8892 49.7832C54.7022 49.3886 55.6194 49.1186 56.5228 49.0148C57.1482 48.9455 57.3844 48.7448 57.5651 48.1909C59.4691 42.3824 61.3939 36.5809 63.3118 30.7794C63.3952 30.5371 63.4508 30.2878 63.5342 29.9832C57.6346 28.4394 51.9782 28.8686 46.3914 31.264C46.8847 32.2471 47.3573 33.1401 47.7881 34.0471C48.1564 34.8294 47.9618 35.5494 47.3156 35.9163C46.5929 36.3317 45.8285 36.0755 45.3699 35.224C44.8835 34.324 44.4318 33.3963 43.9523 32.4617C38.6504 35.5771 34.9397 39.8417 32.6883 45.4632C33.6472 45.7748 34.4672 46.0378 35.2871 46.3148C36.4893 46.7232 36.9618 47.3809 36.663 48.2255C36.3711 49.0355 35.6276 49.2571 34.4672 48.8832C33.6194 48.6063 32.7716 48.3363 31.8266 48.0248C30.2909 53.9232 30.7009 59.5724 33.0982 65.1663C34.0711 64.6817 34.9397 64.2248 35.8361 63.8163C36.1488 63.6709 36.6005 63.4701 36.8367 63.5878C37.2745 63.8024 37.754 64.1694 37.9346 64.5917C38.1917 65.194 37.8582 65.7617 37.2606 66.0801C36.2947 66.5924 35.3219 67.0771 34.3143 67.5963C37.4343 72.8578 41.7218 76.5686 47.2878 78.7771C47.399 78.6524 47.4545 78.6178 47.4684 78.5694C47.7325 77.7801 47.9966 76.984 48.2606 76.1948C48.6636 74.9901 49.3099 74.5194 50.1715 74.8171C50.9846 75.094 51.2139 75.8555 50.8386 77.0047C50.5537 77.8701 50.2688 78.7424 49.9631 79.684C55.9043 81.2001 61.5815 80.7986 67.1893 78.3824C66.682 77.3717 66.2164 76.4786 65.7786 75.5648C65.3826 74.734 65.5841 73.9863 66.2581 73.6263C66.9739 73.2455 67.7382 73.5294 68.1829 74.374C68.6555 75.2671 69.1002 76.174 69.6075 77.164L69.6492 77.1778ZM66.1469 30.9248C66.0983 31.0286 66.0427 31.1394 66.008 31.2501C64.0206 37.2524 62.0402 43.2548 60.0389 49.2501C59.8791 49.7209 60.025 49.9494 60.3724 50.2124C61.8039 51.3271 62.5613 52.8086 62.6169 54.6086C62.6308 55.1624 62.8115 55.3771 63.3188 55.5363C66.3415 56.4986 69.3504 57.5024 72.3592 58.4855C75.4514 59.4963 78.5367 60.514 81.629 61.5247C85.1937 50.2124 79.0092 35.5701 66.14 30.9248H66.1469ZM53.6529 54.7401C53.6251 56.4571 55.0079 57.8901 56.7313 57.9317C58.4407 57.9732 59.893 56.5748 59.9277 54.8578C59.9625 53.1409 58.5727 51.7078 56.8494 51.6801C55.1191 51.6524 53.6738 53.0371 53.646 54.7401H53.6529Z" fill="#13894B"/>
<path d="M10.7229 26.1409C8.11713 26.1409 5.51131 26.1409 2.90549 26.1409C2.5789 26.1409 2.23841 26.1409 1.92571 26.0578C1.26557 25.8848 0.827792 25.3655 0.994564 24.7425C1.11269 24.2786 1.58521 23.8632 1.98825 23.5448C2.20366 23.3786 2.62754 23.4617 2.95414 23.4617C8.10323 23.4617 13.2523 23.4617 18.4014 23.4617C18.7002 23.4617 19.006 23.4617 19.2978 23.5101C19.9718 23.6278 20.354 24.0571 20.3818 24.7355C20.4096 25.4555 20.0483 25.9332 19.3325 26.0855C19.0476 26.1478 18.7349 26.1478 18.4431 26.1478C15.8651 26.1478 13.294 26.1478 10.716 26.1478L10.7229 26.1409Z" fill="#13894B"/>
<path d="M14.0093 35.5494C12.0011 35.5494 9.99987 35.5494 7.99166 35.5494C6.95628 35.5494 6.33783 35.0164 6.34478 34.1925C6.35173 33.3687 6.97018 32.8633 8.01945 32.8633C12.0289 32.8633 16.0454 32.8633 20.0548 32.8633C21.1041 32.8633 21.7017 33.3756 21.6948 34.2202C21.6878 35.0579 21.0902 35.5425 20.027 35.5494C18.0188 35.5564 16.0176 35.5494 14.0093 35.5494Z" fill="#13894B"/>
<path d="M7.01946 54.3596C5.52546 54.3596 4.02451 54.3666 2.53051 54.3596C1.55767 54.3458 0.953125 53.8127 0.953125 53.0166C0.953125 52.2204 1.55767 51.6804 2.52356 51.6735C5.54631 51.6666 8.57601 51.6596 11.5988 51.6735C12.5438 51.6735 13.1622 52.2619 13.1344 53.0581C13.1067 53.8266 12.516 54.3458 11.5988 54.3527C10.07 54.3666 8.54126 54.3527 7.01946 54.3527V54.3596Z" fill="#13894B"/>
<path d="M13.8495 73.1762C12.8002 73.1762 11.7509 73.19 10.7086 73.1762C9.81223 73.1554 9.22852 72.6085 9.22852 71.84C9.22852 71.0716 9.81223 70.5108 10.7086 70.5039C12.835 70.49 14.9613 70.4831 17.0807 70.5039C17.9285 70.5108 18.4983 71.0577 18.5261 71.7916C18.5539 72.56 17.9632 73.1485 17.0807 73.1693C16.0036 73.197 14.9266 73.1693 13.8495 73.1693V73.1762Z" fill="#13894B"/>
</g>
</g>
<defs>
<clipPath id="clip0_379_6907">
<rect width="93" height="91" fill="white" transform="translate(0.5)"/>
</clipPath>
</defs>
</svg>
